<svg width="95" height="95" viewBox="0 0 95 95" fill="none" xmlns="http://www.w3.org/2000/svg">
<rect width="95" height="95" rx="47.5" fill="white"/>
<g clip-path="url(#clip0_806_6)">
<path fill-rule="evenodd" clip-rule="evenodd" d="M65.7947 28.7057C66.3919 28.4544 67.0456 28.3677 67.6877 28.4547C68.3297 28.5417 68.9368 28.7992 69.4455 29.2004C69.9543 29.6016 70.3463 30.1319 70.5806 30.7359C70.8149 31.34 70.8831 31.9959 70.7779 32.6352L65.2969 65.8813C64.7652 69.0883 61.2465 70.9273 58.3055 69.3299C55.8453 67.9935 52.1913 65.9345 48.9046 63.7861C47.2613 62.7107 42.2274 59.2669 42.8461 56.8164C43.3777 54.7212 51.836 46.8477 56.6694 42.1666C58.5665 40.3275 57.7013 39.2666 55.4611 40.9582C49.8979 45.1584 40.9659 51.5457 38.0127 53.3437C35.4076 54.929 34.0494 55.1997 32.4254 54.929C29.4626 54.436 26.7148 53.6723 24.4721 52.7419C21.4416 51.4853 21.5891 47.3189 24.4697 46.1058L65.7947 28.7057Z" fill="#44DDE4"/>
</g>
<defs>
<clipPath id="clip0_806_6">
<rect width="58" height="58" fill="white" transform="translate(18 18)"/>
</clipPath>
</defs>
</svg>
